<?xml version="1.0" standalone="no"?>
<!DOCTYPE svg PUBLIC "-//W3C//DTD SVG 20010904//EN"
 "http://www.w3.org/TR/2001/REC-SVG-20010904/DTD/svg10.dtd">
<svg version="1.0" xmlns="http://www.w3.org/2000/svg"
 width="512.000000pt" height="512.000000pt" viewBox="0 0 512.000000 512.000000"
 preserveAspectRatio="xMidYMid meet">
<metadata>
Created by potrace 1.14, written by Peter Selinger 2001-2017
</metadata>
<g transform="translate(0.000000,512.000000) scale(0.100000,-0.100000)"
fill="#000000" stroke="none">
<path d="M0 2560 l0 -2560 2560 0 2560 0 0 2560 0 2560 -2560 0 -2560 0 0
-2560z m1950 20 l0 -660 -210 0 -210 0 0 660 0 660 210 0 210 0 0 -660z m991
338 l274 -321 3 321 2 322 195 0 195 0 0 -660 0 -660 -187 1 -188 0 -270 314
c-148 173 -273 315 -277 315 -5 0 -8 -142 -8 -315 l0 -315 -195 0 -195 0 0
660 0 660 188 0 188 0 275 -322z"/>
</g>
</svg>
