<?xml version="1.0" standalone="no"?>
<!DOCTYPE svg PUBLIC "-//W3C//DTD SVG 20010904//EN"
 "http://www.w3.org/TR/2001/REC-SVG-20010904/DTD/svg10.dtd">
<svg version="1.0" xmlns="http://www.w3.org/2000/svg"
 width="512.000000pt" height="512.000000pt" viewBox="0 0 512.000000 512.000000"
 preserveAspectRatio="xMidYMid meet">
<metadata>
Created by potrace 1.14, written by Peter Selinger 2001-2017
</metadata>
<g transform="translate(0.000000,512.000000) scale(0.100000,-0.100000)"
fill="#000000" stroke="none">
<path d="M0 2560 l0 -2560 2560 0 2560 0 0 2560 0 2560 -2560 0 -2560 0 0
-2560z m2360 520 l0 -160 -320 0 -320 0 0 -110 0 -110 275 0 275 0 0 -155 0
-155 -275 0 -275 0 0 -235 0 -235 -215 0 -215 0 0 660 0 660 535 0 535 0 0
-160z m1351 -500 c131 -360 239 -656 239 -658 0 -1 -102 -1 -227 0 l-227 3
-26 85 -26 85 -231 3 c-214 2 -232 1 -237 -15 -3 -10 -15 -51 -26 -90 l-22
-73 -220 0 c-206 0 -220 1 -213 18 3 9 109 298 235 642 126 344 231 633 235
643 7 16 26 17 257 15 l250 -3 239 -655z"/>
<path d="M3206 2853 c-83 -278 -126 -427 -126 -439 0 -11 25 -14 135 -14 74 0
135 3 135 6 0 9 -132 458 -135 462 -2 2 -6 -5 -9 -15z"/>
</g>
</svg>
