<svg xmlns="http://www.w3.org/2000/svg" xmlns:xlink="http://www.w3.org/1999/xlink" width="512" zoomAndPan="magnify" viewBox="0 0 384 383.999986" height="512" preserveAspectRatio="xMidYMid meet" version="1.0"><defs><g/><clipPath id="67555f1c45"><path d="M 5.929688 5.929688 L 378.070312 5.929688 L 378.070312 378.070312 L 5.929688 378.070312 Z M 5.929688 5.929688 " clip-rule="nonzero"/></clipPath></defs><rect x="-38.4" width="460.8" fill="#ffffff" y="-38.399999" height="460.799983" fill-opacity="1"/><rect x="-38.4" width="460.8" fill="#ffffff" y="-38.399999" height="460.799983" fill-opacity="1"/><rect x="-38.4" width="460.8" fill="#f6e7d8" y="-38.399999" height="460.799983" fill-opacity="1"/><g clip-path="url(#67555f1c45)"><path fill="#1c191a" d="M 5.929688 5.929688 L 378.527344 5.929688 L 378.527344 378.53125 L 5.929688 378.53125 Z M 5.929688 5.929688 " fill-opacity="1" fill-rule="nonzero"/></g><g fill="#f6e7d8" fill-opacity="1"><g transform="translate(102.572812, 239.249981)"><g><path d="M 12.09375 0 L 12.09375 -99.078125 L 43.921875 -99.078125 L 43.921875 0 Z M 12.09375 0 "/></g></g></g><g fill="#f6e7d8" fill-opacity="1"><g transform="translate(161.468784, 239.249981)"><g><path d="M 81.5 0 L 39.890625 -48.09375 L 39.890625 0 L 10.65625 0 L 10.65625 -99.078125 L 38.453125 -99.078125 L 80.0625 -50.25 L 80.0625 -99.078125 L 109.296875 -99.078125 L 109.296875 0 Z M 81.5 0 "/></g></g></g><path stroke-linecap="round" transform="matrix(0.0166446, 0.750244, -0.749815, 0.0166351, 193.496725, 378.038819)" fill="none" stroke-linejoin="miter" d="M 2.002212 1.998894 L 78.961532 1.998502 " stroke="#acb8c0" stroke-width="4" stroke-opacity="1" stroke-miterlimit="4"/></svg>